<svg xmlns="http://www.w3.org/2000/svg" viewBox="0 0 326 512" fill="currentColor">
  <path d="M196.4 309.8c-23.7 13.9-52.5 16-92.4 7.2C55.7 306.3 26.5 284 12 258c49 33.6 112.5 30.6 160.7 7.2 6.8-3.3 15-5.3 23.7-5.3 35.8 0 64.9 29.1 64.9 64.9.1 12.1-3.3 23.4-9.2 32.9-12.7-22.3-33.6-40.3-55.7-47.9zM326 250.7c0 73.1-60.6 127.3-130.2 127.3-5.3 0-10.4-.3-15.4-1-8.6 24.3-25.5 45.4-48.4 60.5-27.1 17.7-65.7 17.5-68.5 17.3-8.3-.7-14.2-8-13.4-16.1.6-6.6 5.8-11.7 12.4-12.1 1-2.9 59.6-11 76.8-49.2-22 3.1-43.9-3.3-63-17.7C28.9 324.8 0 259.6 0 259.6s59.2 81.1 146.9 69.8c58.2-7.5 76.8-51.5 76.8-51.5 9-15.1 13.9-32.9 13.9-51.7 0-40.3-25.6-76.3-55.7-93.7-21.6-12.6-45.7-16-65.2-12.6-5.8 1-5.3-7.5.8-8.1 68.3-6.6 118.5 24.1 145.4 62.1 43.1 8 63.1 39.4 63.1 76.8zM203.2 136.3c-28.9 10.4-60.5 8.7-88.7-2C80.2 121.2 59.5 98.4 57.6 96c66.3 32 108.9 12.8 136.1 1.7 5.4-2.2 11.2-3.3 16.9-3.3 24.8 0 45 20.2 45 45 0 .2 0 .5-.1.7-15.7-1.1-32.6-1.5-52.3-3.8zM196.4 78c-32.1 6-63.5-3.5-88-24.6C89.4 37.1 91 19.3 91.4 15.3c.7-6.8-4.1-12.9-10.9-13.6-6.1-.5-11.5 3.6-13 9.4-.3 1-3.6 28.1 27.6 55.1 28.5 24.6 63.1 30.6 94.6 22 7.1-1.9 11.2-9.4 9.1-16.4-1.9-6.9-9.1-10.9-16-9-24.3 6.6-49.3 2.1-70.8-11-20.1-12.2-25.6-26.6-25.6-26.6 44.5 17 83.1 7.2 103.5 1.5 6.6-1.8 13.3-2.8 19.9-2.8 38.3 0 69.4 31.1 69.4 69.4 0 3.3-.2 6.5-.7 9.7-36-8.9-66.4-20-99.3-27z"/>
</svg>